<svg viewBox="0 0 300 180" xmlns="http://www.w3.org/2000/svg"><path d="M264.969 74.23h.928v2.797h.638V74.23h.928v-.591h-2.494zM270.027 73.639l-.618 2.628h-.01l-.618-2.628h-.974v3.388h.608v-2.825h.009l.666 2.825h.599l.667-2.825h.009v2.825h.609v-3.388zM105.215 66.502l1.309 1.877h1.775l-1.603-2.236h-1.947l-1.571 2.236h.713zM91.775 78.18v-3.506c.301.84 1.38 1.492 2.523 1.492 1.839 0 3.314-1.349 3.314-3.633s-1.476-3.647-3.314-3.647c-1.143 0-2.222.65-2.523 1.507v-.762c0-.41-.254-.635-.619-.635-.348 0-.601.224-.601.635v8.551c0 .412.254.635.601.635.364-.003.619-.226.619-.637zm2.269-8.249c1.379 0 2.348 1.079 2.348 2.601 0 1.523-.969 2.602-2.348 2.602-1.347 0-2.349-1.079-2.349-2.602 0-1.522 1.001-2.601 2.349-2.601zM105.271 76.18c1.142 0 2.221-.65 2.522-1.49v.762c0 .395.253.618.603.618.365 0 .619-.222.619-.618v-5.807c0-.413-.254-.633-.619-.633-.35 0-.603.22-.603.633v.746c-.301-.84-1.38-1.49-2.522-1.49-1.839 0-3.314 1.363-3.314 3.648-.001 2.284 1.474 3.631 3.314 3.631zm.253-6.233c1.348 0 2.348 1.078 2.348 2.602 0 1.507-1 2.585-2.348 2.585-1.397 0-2.347-1.079-2.347-2.585 0-1.524.95-2.602 2.347-2.602zM114.087 70.088h.507v4.126c0 1.111.555 1.871 1.84 1.871h.461c.285 0 .523-.22.523-.507a.519.519 0 0 0-.523-.524h-.381c-.525 0-.698-.301-.698-.903v-4.062h1.047c.35 0 .556-.204.556-.507 0-.316-.206-.522-.556-.522h-1.047v-1.713c0-.396-.253-.618-.618-.618-.35 0-.604.222-.604.618v1.713h-.507c-.349 0-.555.207-.555.522 0 .302.206.506.555.506zM122.858 68.265c.397 0 .681-.284.681-.65v-.365c0-.365-.284-.649-.681-.649-.382 0-.683.284-.683.649v.365c0 .366.3.65.683.65zM122.858 68.994c-.35 0-.603.224-.603.635v5.823c0 .413.254.633.603.633.363 0 .617-.22.617-.633v-5.823c0-.41-.254-.635-.617-.635zM130.912 75.18c-.729 0-1.253-.236-1.68-.586-.16-.095-.303-.207-.493-.207a.46.46 0 0 0-.476.477c0 .205.08.396.333.588.508.459 1.332.728 2.301.728 1.681 0 2.808-.808 2.808-2.092 0-1.348-.985-1.778-2.538-2.159-1.015-.252-1.618-.396-1.618-1.079 0-.603.507-.937 1.348-.937.667 0 1.11.191 1.57.508.175.112.333.208.555.208.285 0 .46-.192.46-.461 0-.207-.079-.396-.38-.618-.476-.366-1.238-.65-2.174-.65-1.394 0-2.538.744-2.538 2.015 0 1.267 1.016 1.727 2.332 2.013 1.141.27 1.824.428 1.824 1.173 0 .62-.554 1.079-1.634 1.079zM140.809 75.18c-.73 0-1.253-.236-1.681-.586-.16-.095-.302-.207-.493-.207a.459.459 0 0 0-.475.477c0 .205.08.396.333.588.507.459 1.332.728 2.299.728 1.683 0 2.809-.808 2.809-2.092 0-1.348-.983-1.778-2.538-2.159-1.015-.252-1.617-.396-1.617-1.079 0-.603.507-.937 1.347-.937.668 0 1.112.191 1.572.508.174.112.333.208.556.208.284 0 .459-.192.459-.461 0-.207-.079-.396-.38-.618-.477-.366-1.238-.65-2.174-.65-1.396 0-2.537.744-2.537 2.015 0 1.267 1.014 1.727 2.332 2.013 1.141.27 1.824.428 1.824 1.173-.003.62-.558 1.079-1.636 1.079zM151.656 76.18c.935 0 1.761-.253 2.316-.76.189-.159.286-.35.286-.539 0-.286-.19-.493-.462-.493-.189 0-.316.113-.507.222-.492.365-.919.525-1.618.525-1.22 0-2.301-.873-2.347-2.38v-.032h4.378c.492 0 .714-.238.714-.713 0-1.952-1.078-3.108-2.951-3.108-1.887 0-3.331 1.521-3.331 3.663-.001 2.235 1.46 3.615 3.522 3.615zm-.239-6.249c1.094 0 1.761.603 1.825 1.888h-3.855c.239-1.189 1.015-1.888 2.03-1.888zM159.965 76.086c.364 0 .618-.22.618-.633v-3.221c0-1.444 1.016-2.062 2.094-2.079.381 0 .634-.19.634-.586 0-.348-.27-.572-.698-.572-.937 0-1.729.699-2.03 1.428v-.793c0-.41-.254-.635-.618-.635-.35 0-.603.224-.603.635v5.823c0 .412.253.633.603.633zM168.353 68.265c.397 0 .681-.284.681-.65v-.365c0-.365-.284-.649-.681-.649-.381 0-.682.284-.682.649v.365c0 .366.301.65.682.65zM168.353 68.994c-.35 0-.603.224-.603.635v5.823c0 .413.254.633.603.633.364 0 .618-.22.618-.633v-5.823c.001-.41-.254-.635-.618-.635zM177.361 76.18c.936 0 1.762-.253 2.316-.76.191-.159.286-.35.286-.539 0-.286-.19-.493-.461-.493-.19 0-.316.113-.506.222-.493.365-.921.525-1.619.525-1.222 0-2.301-.873-2.347-2.38v-.032h4.377c.492 0 .714-.238.714-.713 0-1.952-1.078-3.108-2.95-3.108-1.888 0-3.331 1.521-3.331 3.663 0 2.235 1.461 3.615 3.521 3.615zm-.238-6.249c1.095 0 1.761.603 1.825 1.888h-3.856c.239-1.189 1.016-1.888 2.031-1.888zM107.837 90.931c0-5.046 2.396-9.127 6.112-11.402l-8.577.199c.192.137.384.274.565.423.921.749 1.384 1.614 1.384 2.709 0 1.442-.923 2.48-2.306 2.48-.922 0-1.499-.52-2.422-1.096-1.441-.979-2.594-1.384-4.498-1.384-3.92 0-7.09 2.999-7.09 8.071 0 5.074 3.229 8.071 7.148 8.071 1.902 0 3.114-.346 4.555-1.383.922-.577 1.498-1.037 2.421-1.037 1.382 0 2.304.979 2.304 2.42 0 1.098-.46 1.96-1.383 2.71a9.53 9.53 0 0 1-.667.514l8.648.17c-3.762-2.252-6.194-6.343-6.194-11.465zM84.895 90.931c0-4.728 1.957-8.521 5.104-10.846l-8.689.202c-1.007 0-1.824.873-1.824 1.951v17.563c0 1.079.816 1.952 1.824 1.952l8.933.175c-3.285-2.309-5.348-6.164-5.348-10.997z"/><path d="M121.154 82.804c-4.149 0-7.204 3.229-7.204 8.127 0 4.901 3.054 8.128 7.204 8.128 4.151 0 7.149-3.227 7.149-8.128 0-4.898-2.998-8.127-7.149-8.127z"/><path d="M135.849 90.931c0-5.69 2.827-10.031 7.166-12.077l-15.219.353c4.013 2.199 6.618 6.433 6.618 11.724 0 5.33-2.605 9.55-6.617 11.736l15.168.298c-4.303-2.064-7.116-6.384-7.116-12.034zM179.256 90.931c0-4.899-2.998-8.127-7.149-8.127-4.15 0-7.206 3.229-7.206 8.127 0 4.901 3.056 8.128 7.206 8.128 4.151 0 7.149-3.226 7.149-8.128z"/><path d="M158.791 90.931c0-6.179 3.589-10.914 8.804-12.648l-13.273.308c.956.414 1.815.938 2.569 1.559.923.749 1.384 1.614 1.384 2.709 0 1.442-.923 2.48-2.307 2.48-.921 0-1.499-.52-2.421-1.096-1.441-.979-2.595-1.384-4.496-1.384-3.92 0-7.091 2.999-7.091 8.071 0 5.074 3.227 8.071 7.15 8.071 1.902 0 3.111-.346 4.554-1.383.921-.577 1.498-1.037 2.419-1.037 1.384 0 2.307.979 2.307 2.42 0 1.098-.461 1.96-1.384 2.71a9.987 9.987 0 0 1-2.348 1.483l12.516.246c-4.988-1.831-8.383-6.453-8.383-12.509zM202.66 72.828c-4.266 0-7.898 2.307-8.763 4.959V66.315c0-1.787-1.326-2.997-3.056-2.997-1.671 0-2.997 1.21-2.997 2.997v11.499l-11.836.275c5.531 1.557 9.357 6.426 9.357 12.843 0 6.271-3.603 11.003-8.865 12.693l13.939.274c1.007 0 1.824-.874 1.824-1.953v-3.027c.979-.457 1.634-1.396 1.634-2.684v-1.614c.864 2.709 4.497 4.958 8.763 4.958 6.574 0 11.589-5.189 11.589-13.375 0-8.187-5.015-13.376-11.589-13.376zm-1.787 21.62c-4.207 0-7.263-3.343-7.263-8.244s3.056-8.187 7.263-8.187c4.265 0 7.265 3.286 7.265 8.187-.001 4.902-3 8.244-7.265 8.244zM239.035 88.511V76.115c0-1.785-1.325-2.94-3.055-2.94-1.672 0-2.997 1.155-2.997 2.94v12.338c0 3.861-1.846 5.823-5.247 5.823-3.459 0-5.304-1.961-5.304-5.823V76.115c0-1.785-1.325-2.94-2.997-2.94-1.73 0-3.056 1.155-3.056 2.94v12.396c0 6.688 3.462 11.068 11.358 11.068 7.838 0 11.298-4.38 11.298-11.068zM258.388 83.668v12.624c0 1.787 1.324 2.999 2.997 2.999 1.729 0 3.054-1.212 3.054-2.999v-13.43c0-6.978-3.515-10.034-9.05-10.034-4.092 0-6.86 2.25-8.013 4.902v-1.616c0-1.785-1.326-2.94-3.056-2.94-1.671 0-2.996 1.155-2.996 2.94v20.177c0 1.787 1.326 2.999 2.996 2.999 1.73 0 3.056-1.212 3.056-2.999V84.646c0-4.44 2.536-6.398 5.707-6.398 3.344.001 5.305 1.788 5.305 5.42zM194.591 103.623a.35.35 0 0 0-.261-.18.33.33 0 0 0-.304.048.526.526 0 0 0-.185.336c-.022.13-.076.423-.163.881a7.883 7.883 0 0 1-.272 1.144.49.49 0 0 0 .032.399c.051.08.133.144.25.192a.389.389 0 0 0 .306-.024c.094-.056.17-.16.229-.314.044-.177.088-.361.131-.555.029.025.058.053.087.084.094.106.195.158.305.158a.398.398 0 0 0 .251-.144.406.406 0 0 0 .11-.278c.008-.105-.033-.212-.12-.324a10.294 10.294 0 0 1-.229-.206c-.088-.071-.149-.118-.184-.145a.388.388 0 0 0-.044-.035c.05-.298.091-.511.119-.638a.576.576 0 0 0-.058-.399zM197.336 104.033a.382.382 0 0 0-.251-.205.39.39 0 0 0-.305.025.614.614 0 0 0-.206.325 3.762 3.762 0 0 1-.121.506c-.05.249-.116.471-.195.663a.506.506 0 0 0 .011.398.428.428 0 0 0 .24.217.429.429 0 0 0 .304-.012c.108-.048.189-.143.24-.288l.021-.073.153.144c.095.105.196.158.304.158.088-.009.171-.058.252-.146a.41.41 0 0 0 .108-.278c.008-.104-.033-.212-.12-.326a4.281 4.281 0 0 0-.251-.228 3.69 3.69 0 0 0-.206-.169c-.007-.008-.015-.013-.022-.013.029-.144.054-.248.076-.313a.612.612 0 0 0-.032-.385z"/><path d="M203.289 109.458a.678.678 0 0 0-.13.011c.18-1.43.272-3.037.272-4.822 0-.36-.125-.655-.371-.88-.202-.175-.501-.263-.892-.263-.444.023-.884.068-1.318.131 0-.032.003-.063.01-.095.008-.194.015-.329.021-.41v-.133l2.146-.085c.14 0 .251-.052.338-.156a.546.546 0 0 0 .13-.362.607.607 0 0 0-.13-.374c-.071-.08-.185-.123-.338-.132l-4.667.144a.448.448 0 0 0-.359.145.571.571 0 0 0-.131.373.539.539 0 0 0 .12.385c.073.098.189.146.348.146l1.667-.048v.337a2.28 2.28 0 0 1-.055.41c-.445.073-.876.169-1.297.291-.05.006-.113.059-.185.155a.495.495 0 0 0-.087.252.333.333 0 0 0-.153.11.651.651 0 0 0-.164.385c-.065.901-.116 1.7-.152 2.4a2.12 2.12 0 0 0-.033-.036c-.531-.467-.989-.8-1.373-1.001a3.487 3.487 0 0 0-.437-.194.568.568 0 0 0 .033-.215l-.054-2.471 1.362.18a.422.422 0 0 0 .339-.157.547.547 0 0 0 .131-.36.623.623 0 0 0-.131-.375c-.072-.08-.185-.125-.339-.132l-1.384-.194v-.41a.677.677 0 0 0-.141-.398c-.072-.096-.19-.141-.349-.132a.425.425 0 0 0-.35.192.552.552 0 0 0-.086.35v.265l-1.439-.204a.44.44 0 0 0-.358.144.565.565 0 0 0-.132.375.547.547 0 0 0 .12.386c.073.096.189.144.348.144l1.482.205.076 2.664v.108c-.204.073-.425.19-.663.351-.269.192-.655.55-1.156 1.072a.572.572 0 0 0-.163.421c.029.249.119.403.272.458a.359.359 0 0 0 .36-.108 9.98 9.98 0 0 1 .391-.432c-.05.192-.149.541-.293 1.047a13.694 13.694 0 0 1-.502 1.482.548.548 0 0 0 0 .399.433.433 0 0 0 .24.216.37.37 0 0 0 .306.012.413.413 0 0 0 .185-.169c.05.048.12.081.206.096l.501.098c-.16.199-.331.408-.512.625-.116.128-.153.313-.108.555.043.216.162.337.358.362a.504.504 0 0 0 .414-.181c.349-.418.661-.805.938-1.158l6.808 1.277c.152.032.274 0 .37-.096a.563.563 0 0 0 .164-.348c.021-.169-.006-.302-.076-.398-.068-.081-.175-.137-.327-.17l-6.274-1.18c.182-.251.333-.474.457-.675.16-.225.244-.45.251-.676a.8.8 0 0 0-.283-.615c-.197-.178-.508-.266-.937-.266-.356 0-.73.037-1.122.11.022-.073.039-.128.055-.169a.52.52 0 0 0-.022-.397.384.384 0 0 0-.239-.207.423.423 0 0 0-.087-.011.305.305 0 0 1 .076-.059c.269-.226.524-.354.762-.387.183.025.4.113.653.266.271.152.619.41 1.047.772.181.129.345.172.491.133.049-.024.097-.05.141-.073-.021.514-.033.957-.033 1.326 0 .371.094.644.282.821.204.177.454.268.752.277 1.175 0 2.647-.016 4.411-.048.196-.009.327-.076.392-.207a.628.628 0 0 0 .087-.372.557.557 0 0 0-.131-.326c-.075-.081-.191-.113-.35-.097zm-8.578-.193v-.024a4.668 4.668 0 0 1 1.111-.157c.181 0 .283.024.306.071.006.033-.023.102-.088.205-.159.249-.324.511-.491.784l-.915-.182a.416.416 0 0 0-.141 0c.072-.223.145-.457.218-.697zm4.706.301h-.382c-.117 0-.204-.036-.262-.108-.043-.049-.065-.137-.065-.264 0-.589.065-1.973.196-4.16.239-.056.487-.108.742-.156zm1.013-4.834c.203-.031.416-.06.643-.085v1.014l-.676-.061.043-.735a.9.9 0 0 0-.01-.133zm-.088 1.856l.763.061v.94l-.839.433zm-.151 2.978l.032-.53.903-.457h.011l.033.963c-.356 0-.683.008-.979.024zm2.101-.061c-.116 0-.232.004-.348.014l-.076-4.824a8.274 8.274 0 0 1-.021-.132c.073-.007.159-.016.261-.024.16-.009.276.008.35.048.071.057.108.148.108.278a35.708 35.708 0 0 1-.274 4.64zM223.134 111.05c-3.253.36-5.71.541-7.373.541a.32.32 0 0 1-.273-.133c-.029-.049-.043-.14-.043-.276.029-.506.131-1.403.304-2.689l4.825.301a.42.42 0 0 0 .338-.156.554.554 0 0 0 .13-.361.617.617 0 0 0-.13-.374c-.073-.079-.185-.125-.338-.133h-.032c.13-.699.214-1.474.251-2.327 0-.37-.128-.671-.381-.904-.203-.177-.508-.265-.915-.265a16.427 16.427 0 0 0-3.268.832c.007-.096.023-.193.045-.289a.552.552 0 0 0-.132-.398.387.387 0 0 0-.304-.156.384.384 0 0 0-.304.156.653.653 0 0 0-.164.398c-.442 2.997-.725 5.196-.849 6.593 0 .387.1.663.304.833.219.192.474.288.773.288 2.005 0 4.517-.161 7.537-.482.182-.008.313-.076.392-.205a.817.817 0 0 0 .076-.362.478.478 0 0 0-.132-.336c-.072-.081-.185-.114-.337-.096zm-7.08-4.847c1.09-.393 2.219-.69 3.388-.891.161 0 .276.024.35.071.065.056.097.148.097.278a13.402 13.402 0 0 1-.24 2.048l-3.769-.253c.051-.393.108-.81.174-1.253z"/><path d="M215.815 103.889a17.65 17.65 0 0 1 5.5-.615c.283.007.487.016.611.024.203 0 .356.044.457.132.088.056.138.149.153.276.073.733.098 1.548.075 2.448-.029.9-.1 1.775-.217 2.628a.56.56 0 0 1-.164.397.573.573 0 0 1-.358.132c-.488 0-1.18-.124-2.08-.373-.162-.031-.288.016-.382.145a.542.542 0 0 0-.086.494c.051.169.206.289.469.361 1.009.242 1.807.362 2.395.362.334 0 .585-.092.75-.277.175-.2.281-.47.317-.807.138-.868.221-1.804.251-2.808a25.737 25.737 0 0 0-.098-3.049 1.189 1.189 0 0 0-.544-.856 1.357 1.357 0 0 0-.796-.229 54.943 54.943 0 0 0-.839-.024c-1.815-.032-3.213.061-4.193.277a.94.94 0 0 0-.262.061.767.767 0 0 0 .109-.375.432.432 0 0 0-.163-.312.401.401 0 0 0-.304-.108c-.117.008-.226.075-.328.205-.108.152-.342.465-.697.938-.072.033-.127.11-.164.231-.399.505-.769.948-1.11 1.326a.523.523 0 0 0-.153.386.51.51 0 0 0 .153.326.423.423 0 0 0 .304.144c.117 0 .229-.061.336-.182.328-.361.68-.789 1.058-1.278zM243.641 111.146c-.109-.2-.184-.346-.229-.435a.366.366 0 0 0-.067-.107l.1-.109a.84.84 0 0 0 .076-.374.445.445 0 0 0-.13-.324.226.226 0 0 0-.088-.06c.05-.217.105-.443.164-.677 0-.369-.127-.67-.381-.903-.204-.177-.509-.265-.916-.265a26.72 26.72 0 0 0-2.504.023.706.706 0 0 0-.12-.373c-.073-.098-.189-.14-.348-.133a.388.388 0 0 0-.348.182.636.636 0 0 0-.098.349v.036c-.922.056-1.827.165-2.713.326-.065.008-.122.056-.174.144a.314.314 0 0 0-.24-.106.39.39 0 0 0-.293.142.696.696 0 0 0-.165.411c-.093.491-.16.848-.196 1.072 0 .386.103.664.306.833.217.192.475.289.773.289.813 0 1.728-.024 2.744-.073v.47l-4.27.217a.405.405 0 0 0-.337.133.515.515 0 0 0-.131.362.48.48 0 0 0 .109.36c.073.096.184.145.338.145l8.593-.457c.008-.009.026-.009.055 0a.372.372 0 0 0 .194.155.469.469 0 0 0 .569-.276.605.605 0 0 0-.011-.41c-.074-.17-.161-.36-.262-.567zm-4.878-1.086a46.927 46.927 0 0 1-2.548.085.32.32 0 0 1-.272-.132c-.028-.05-.043-.142-.043-.278.006-.081.036-.237.088-.47a.257.257 0 0 0 .173.035 24.912 24.912 0 0 1 2.603-.3v1.06zm.929-1.11a24.18 24.18 0 0 1 2.428-.022c.16 0 .276.022.348.072.066.055.098.148.098.277-.043.153-.09.313-.142.482-1.002.08-1.913.16-2.733.24v-1.049zm.02 2.485v-.47a89.041 89.041 0 0 0 2.832-.229c.007 0 .023.003.044.011v.013a.623.623 0 0 0 .055.41c.008.008.024.044.054.11zM243.422 105.709l-.425-.554c-.088-.122-.192-.185-.315-.194-.095-.008-.189.028-.284.108a.468.468 0 0 0-.164.302.545.545 0 0 0 .13.374c.051.072.178.241.382.507.195.248.36.485.49.71.073.13.17.206.294.229.095.008.195-.028.304-.109a.435.435 0 0 0 .175-.276.553.553 0 0 0-.087-.386 10.278 10.278 0 0 0-.5-.711zM238.683 103.635a.8.8 0 0 0-.228.591c0 .249.072.459.216.628.14.168.318.253.534.253.204 0 .382-.089.534-.266a.99.99 0 0 0 .218-.615.882.882 0 0 0-.218-.591.636.636 0 0 0-.511-.227.696.696 0 0 0-.545.227zM235.132 106.625c.11 0 .214-.06.316-.181.181-.216.377-.477.588-.782.219-.322.367-.548.448-.675a.482.482 0 0 0 .097-.374.384.384 0 0 0-.152-.291.375.375 0 0 0-.306-.096c-.116.008-.218.077-.304.205-.051.104-.186.31-.403.615a8.609 8.609 0 0 1-.6.783.5.5 0 0 0-.13.373.423.423 0 0 0 .151.289.519.519 0 0 0 .295.134z"/><path d="M243.683 102.418c-.219-.144-.693-.217-1.428-.217-.877 0-1.793.033-2.745.096l-.032-.409a.78.78 0 0 0-.185-.386c-.088-.08-.207-.105-.36-.072a.407.407 0 0 0-.326.24.596.596 0 0 0-.044.362l.044.338a31.364 31.364 0 0 0-3.356.362.17.17 0 0 0-.033-.061.38.38 0 0 0-.293-.157.395.395 0 0 0-.316.108.568.568 0 0 0-.153.386c0 .08-.01.284-.033.614a5.484 5.484 0 0 1-.077.821.536.536 0 0 0 .077.41c.072.08.17.133.294.157.117.023.221 0 .316-.073.095-.071.159-.192.195-.361.028-.241.051-.517.066-.832v-.06c.639-.104 1.3-.192 1.983-.264-.007 0-.011.004-.011.012a.682.682 0 0 0-.163.409 50.2 50.2 0 0 0-.306 2.459c0 .08.004.165.011.253-.726.346-1.405.651-2.036.916a.457.457 0 0 0-.273.289.648.648 0 0 0 .021.363.462.462 0 0 0 .229.265.464.464 0 0 0 .371-.013 45.626 45.626 0 0 0 2.298-1.06c.137.048.286.072.445.072 1.09 0 2.457-.137 4.107-.41.175-.008.298-.073.37-.194a.748.748 0 0 0 .076-.35.538.538 0 0 0-.12-.314c-.073-.08-.18-.113-.326-.096-1.162.2-2.135.342-2.919.422 1.314-.73 2.235-1.25 2.766-1.555a.53.53 0 0 0 .249-.314.537.537 0 0 0-.042-.361.372.372 0 0 0-.251-.241.459.459 0 0 0-.359.06c-.421.266-1.357.792-2.81 1.58-.313.153-.608.314-.884.482v-.024c.022-.314.117-1.056.284-2.231a.627.627 0 0 0-.131-.396.493.493 0 0 0-.097-.085 54.195 54.195 0 0 1 4.967-.241c.224 0 .351.059.381.18.028.056.046.12.054.193 0 .08-.105.281-.315.603a.742.742 0 0 0-.045.506c.053.176.179.262.381.253a.503.503 0 0 0 .415-.217c.349-.611.522-1.057.522-1.337a1.013 1.013 0 0 0-.453-.88zM264.161 111.279c.095-.588.162-1.23.207-1.93 0-.37-.128-.67-.382-.905-.203-.175-.509-.264-.915-.264a17.52 17.52 0 0 0-3.43.423c-.053.007-.102.048-.153.12a.396.396 0 0 0-.228-.096.394.394 0 0 0-.307.157.67.67 0 0 0-.162.397 43.522 43.522 0 0 0-.262 2.278c0 .394.101.679.306.856.224.193.49.29.794.29 1.176 0 2.654-.093 4.433-.277.204-.01.342-.081.415-.217a.653.653 0 0 0 .086-.386.59.59 0 0 0-.141-.349c-.05-.074-.138-.106-.261-.097zm-.915.095c-1.488.169-2.64.253-3.454.253a.327.327 0 0 1-.272-.122c-.043-.048-.066-.14-.066-.277.006-.248.069-.794.187-1.639a.519.519 0 0 0 .12.011 17.905 17.905 0 0 1 3.256-.385c.16 0 .276.024.348.072.066.057.1.149.1.278-.03.628-.103 1.231-.219 1.809zM257.965 111.349a26.13 26.13 0 0 0 0-2.097c0-.368-.129-.669-.382-.903-.205-.177-.509-.266-.915-.266a8.231 8.231 0 0 0-1.722.349c-.051 0-.101.041-.152.121a.286.286 0 0 0-.098.085.678.678 0 0 0-.165.41 50.916 50.916 0 0 0-.053 2.362c0 .394.102.679.306.857.225.192.491.288.794.288.632 0 1.427-.053 2.387-.157.195-.006.332-.081.412-.216a.64.64 0 0 0 .087-.385.582.582 0 0 0-.142-.35c-.072-.081-.192-.113-.357-.098zm-.916.133a17.24 17.24 0 0 1-1.307.097.326.326 0 0 1-.272-.121c-.043-.049-.067-.14-.067-.276-.006-.273 0-.888.024-1.845a6.875 6.875 0 0 1 1.186-.217c.16 0 .276.024.349.073.065.056.098.148.098.276.029.683.025 1.355-.011 2.013zM264.107 106.853h-.055c.116-.658.193-1.402.23-2.229 0-.37-.128-.671-.382-.904-.204-.177-.509-.265-.916-.265-.878.023-1.727.1-2.547.228l.108-.819v-.024l3.517.265a.423.423 0 0 0 .339-.157.56.56 0 0 0 .13-.361.618.618 0 0 0-.13-.375c-.073-.08-.186-.123-.339-.132l-5.227-.434a.445.445 0 0 0-.361.145.57.57 0 0 0-.132.372.539.539 0 0 0 .121.386c.073.097.189.145.348.145l.817.073-.142 1.072a5.26 5.26 0 0 0-.631.133c-.065.009-.128.06-.185.157a.564.564 0 0 0-.088.385.478.478 0 0 0 .142.339c.073.08.157.12.251.12.115-.031.243-.055.381-.07l-.241 2.072c-.006.008-.011.027-.011.059h-.49a.49.49 0 0 0-.359.157.569.569 0 0 0-.131.374.537.537 0 0 0 .12.385c.073.096.189.145.35.145l5.51-.217a.415.415 0 0 0 .336-.157.538.538 0 0 0 .132-.361.62.62 0 0 0-.132-.375c-.068-.078-.181-.123-.333-.132zm-.97.036l-3.115.11.283-2.267a17.726 17.726 0 0 1 2.625-.241c.16 0 .276.023.348.072.066.056.1.15.1.277-.031.7-.11 1.383-.241 2.049zM257.746 104.636l-2.963.193a.449.449 0 0 0-.359.144.564.564 0 0 0-.132.374.533.533 0 0 0 .12.385c.072.097.189.146.348.146l2.985-.217c.138 0 .25-.053.336-.157a.546.546 0 0 0 .131-.363.63.63 0 0 0-.131-.373c-.071-.08-.182-.123-.335-.132zM257.615 107.831c.138 0 .25-.052.337-.157s.13-.225.13-.361a.611.611 0 0 0-.13-.375c-.072-.08-.185-.125-.337-.132l-2.832-.386a.443.443 0 0 0-.359.145.56.56 0 0 0-.132.373.535.535 0 0 0 .12.386c.072.097.189.144.348.144z"/><path d="M254.718 103.756l3.115.314c.138 0 .25-.054.338-.157a.551.551 0 0 0 .13-.362.622.622 0 0 0-.13-.375c-.074-.08-.185-.125-.338-.132l-.915-.096c.007-.081.022-.161.044-.241l.043-.301a.644.644 0 0 0-.054-.422.344.344 0 0 0-.262-.192.404.404 0 0 0-.338.048c-.095.073-.16.189-.195.35-.009.031-.021.116-.044.252-.008.13-.029.241-.065.338-.007.024-.016.047-.023.073l-1.285-.146a.447.447 0 0 0-.359.146.556.556 0 0 0-.132.373.536.536 0 0 0 .121.385c.074.097.189.145.349.145zM71.081 88.675c0-11.337-9.174-20.532-20.505-20.566.509 1.203 3.141 7.541 3.145 9.88-.141 2.867-1.604 5.639-2.911 9.732-1.784-3.921-4.146-6.665-4.018-10.002-.041-2.458 2.99-8.44 3.594-9.607-11.3.069-20.439 9.249-20.439 20.564 0 11.228 8.999 20.349 20.177 20.558-3.397-2.184-5.685-4.43-7.264-6.724-1.56-2.557-.759-6.09-1.587-10.866 3.603 3.589 5.493 4.892 6.588 6.926 1.214 1.942 1.953 5.742 2.555 10.671l.098.002c.189 0 .375-.009.562-.014.603-4.924 1.342-8.72 2.554-10.66 1.096-2.034 2.985-3.336 6.588-6.926-.829 4.777-.029 8.309-1.588 10.866-1.576 2.29-3.859 4.531-7.246 6.712 10.955-.457 19.697-9.48 19.697-20.546zm-28.256 1.676c-1.348-2.675-.268-6.133-.71-10.959 3.304 3.867 5.085 5.317 6.01 7.43 1.071 2.062 1.501 5.982 1.704 11.044-3.391-2.528-5.567-5.027-7.004-7.515zm15.515-.156c-1.333 2.672-3.111 4.776-6.467 7.631-.114-5.275-.248-8.741.734-10.958.814-2.253 2.575-3.873 5.751-8.099-.137 5.043 1.206 8.56-.018 11.426z"/><path d="M50.44 109.441l-.025-.201c-.098 0-.194-.006-.292-.007.108.069.207.139.317.208zM51.049 109.441c.117-.073.221-.147.335-.221-.103.004-.206.005-.309.008l-.026.213zM50.576 68.109l-.085-.2-.105.202c.043 0 .085-.003.128-.003.02-.001.041.001.062.001z"/></svg>